# xmcd CD database file generated by Grip 2.96
# 
# Track frame offsets:
#       150
#       15915
#       31762
#       36987
#       48312
#       50495
#       71330
#       73885
#       85507
#       101327
#       114890
#       131927
#       133572
#       147997
#       161760
#       166847
#       180497
#       191942
#       208010
# 
# Disc length: 2928 seconds
# 
# Revision: 0
# Processed by: cddbd v1.4PL0 Copyright (c) Steve Scherf et al.
# Submitted via: Grip 2.96
# 
DISCID=040b6e13
DTITLE=IIIrd Tyme Out - Back To The Mac
DYEAR=1900
DGENRE=
TTITLE0=Come Back To Me In My Dreams
TTITLE1=Medals For Mothers
TTITLE2=Good To Be Back At The MAC
TTITLE3=When My Time Comes To Go
TTITLE4=Back Home We Have A Little Music Born
TTITLE5=Drifting Too Far From The Shore
TTITLE6=Y'all Wanna Hear A Little Fiddle Playing?
TTITLE7=Lost John
TTITLE8=Please Search Your Heart
TTITLE9=Dim Lights, Thick Smoke
TTITLE10=The Old, Old House
TTITLE11=One Of The Greatest Mandolin Players In The Whole World Right Here
TTITLE12=East Tennessee Blues
TTITLE13=You Can Take Your Nine Pound Hammer
TTITLE14=I'll Introduce You To The Guitar Player Right Now
TTITLE15=A Little Unfair
TTITLE16=I Hung My Head And Cried
TTITLE17=I'll Stay Around
TTITLE18=Why Did You Wonder?
EXTD=
EXTT0=
EXTT1=
EXTT2=
EXTT3=
EXTT4=
EXTT5=
EXTT6=
EXTT7=
EXTT8=
EXTT9=
EXTT10=
EXTT11=
EXTT12=
EXTT13=
EXTT14=
EXTT15=
EXTT16=
EXTT17=
EXTT18=
PLAYORDER=
